<svg xmlns="http://www.w3.org/2000/svg" xmlns:xlink="http://www.w3.org/1999/xlink" width="500" zoomAndPan="magnify" viewBox="0 0 375 374.999991" height="500" preserveAspectRatio="xMidYMid meet" version="1.0"><rect x="-37.5" width="450" fill="#ffffff" y="-37.499999" height="449.999989" fill-opacity="1"/><rect x="-37.5" width="450" fill="#ffffff" y="-37.499999" height="449.999989" fill-opacity="1"/><path fill="#ffa200" d="M 366.949219 322.304688 C 366.949219 338.675781 293.136719 351.945312 202.082031 351.945312 C 111.035156 351.945312 37.222656 338.675781 37.222656 322.304688 C 37.222656 305.933594 111.035156 292.664062 202.082031 292.664062 C 293.136719 292.664062 366.949219 305.933594 366.949219 322.304688 Z M 366.949219 322.304688 " fill-opacity="1" fill-rule="nonzero"/><path fill="#ffffff" d="M 283.644531 325.898438 C 283.644531 336.609375 236.992188 345.292969 179.453125 345.292969 C 121.90625 345.292969 75.257812 336.609375 75.257812 325.898438 C 75.257812 315.1875 121.90625 306.503906 179.453125 306.503906 C 236.992188 306.503906 283.644531 315.1875 283.644531 325.898438 Z M 283.644531 325.898438 " fill-opacity="0.1" fill-rule="nonzero"/><path fill="#ffffff" d="M 260.789062 325.898438 C 260.789062 334.324219 221.753906 341.15625 173.605469 341.15625 C 125.457031 341.15625 86.421875 334.324219 86.421875 325.898438 C 86.421875 317.46875 125.457031 310.640625 173.605469 310.640625 C 221.753906 310.640625 260.789062 317.46875 260.789062 325.898438 Z M 260.789062 325.898438 " fill-opacity="0.1" fill-rule="nonzero"/><path fill="#002d51" d="M 219.238281 186.460938 L 339.644531 168.949219 L 375 199.070312 L 348.398438 230.941406 L 223.785156 238.121094 Z M 219.238281 186.460938 " fill-opacity="1" fill-rule="nonzero"/><path fill="#002d51" d="M 283.644531 221.570312 L 292.390625 306.503906 L 297.121094 306.503906 L 297.121094 219.996094 Z M 283.644531 221.570312 " fill-opacity="1" fill-rule="nonzero"/><path fill="#ffffff" d="M 258.574219 201.753906 C 258.242188 201.835938 257.945312 201.914062 257.683594 201.980469 C 257.691406 201.609375 257.707031 201.246094 257.722656 200.882812 C 257.726562 200.566406 257.730469 200.253906 257.730469 199.9375 C 257.734375 199.621094 257.734375 199.351562 257.738281 199.125 L 256.28125 199.253906 L 255.820312 201.722656 C 255.578125 201.777344 255.292969 201.839844 254.960938 201.90625 C 254.628906 201.976562 254.320312 202.039062 254.03125 202.097656 C 253.679688 202.175781 253.332031 202.246094 252.988281 202.320312 C 253.304688 200.796875 253.621094 199.296875 253.933594 197.820312 C 254.054688 197.199219 254.191406 196.554688 254.328125 195.878906 C 254.464844 195.203125 254.601562 194.527344 254.742188 193.859375 C 254.878906 193.1875 255.011719 192.546875 255.136719 191.925781 C 255.265625 191.304688 255.371094 190.742188 255.464844 190.226562 C 256.214844 190.105469 256.980469 189.96875 257.761719 189.824219 C 258.542969 189.679688 259.300781 189.503906 260.039062 189.308594 C 260.035156 189.664062 260.035156 190.113281 260.046875 190.648438 C 260.050781 191.179688 260.0625 191.761719 260.082031 192.390625 C 260.105469 193.019531 260.132812 193.671875 260.15625 194.359375 C 260.183594 195.042969 260.207031 195.714844 260.230469 196.375 C 260.308594 197.925781 260.390625 199.5625 260.472656 201.300781 C 260.144531 201.382812 259.816406 201.457031 259.480469 201.523438 C 259.203125 201.589844 258.902344 201.667969 258.574219 201.753906 Z M 256.539062 197.546875 C 256.582031 197.539062 256.664062 197.53125 256.78125 197.515625 C 256.894531 197.496094 257.015625 197.480469 257.148438 197.464844 C 257.273438 197.449219 257.394531 197.433594 257.503906 197.417969 C 257.613281 197.402344 257.691406 197.382812 257.734375 197.371094 C 257.730469 197.304688 257.726562 197.1875 257.730469 197.027344 C 257.734375 196.863281 257.734375 196.675781 257.734375 196.46875 C 257.730469 196.261719 257.730469 196.035156 257.734375 195.785156 C 257.734375 195.539062 257.734375 195.296875 257.738281 195.058594 C 257.730469 194.488281 257.734375 193.867188 257.746094 193.203125 L 257.714844 191.738281 L 257.464844 191.777344 L 257.207031 193.25 Z M 256.539062 197.546875 " fill-opacity="1" fill-rule="nonzero"/><path fill="#ffffff" d="M 261.597656 201.828125 C 261.605469 200.253906 261.609375 198.703125 261.597656 197.183594 C 261.601562 196.558594 261.597656 195.894531 261.585938 195.195312 C 261.578125 194.5 261.5625 193.8125 261.542969 193.132812 C 261.519531 192.457031 261.496094 191.800781 261.464844 191.164062 C 261.429688 190.535156 261.394531 189.953125 261.363281 189.425781 C 261.628906 189.402344 261.917969 189.375 262.222656 189.335938 C 262.53125 189.296875 262.808594 189.261719 263.058594 189.230469 C 263.308594 189.195312 263.609375 189.148438 263.964844 189.082031 C 263.953125 190.390625 263.941406 191.460938 263.925781 192.300781 C 263.90625 193.140625 263.894531 193.824219 263.890625 194.34375 C 263.886719 194.867188 263.886719 195.371094 263.886719 195.855469 C 263.890625 196.339844 263.886719 196.789062 263.875 197.207031 C 263.867188 197.625 263.859375 197.980469 263.851562 198.273438 L 264.152344 198.246094 L 265.25 189.171875 C 265.554688 189.136719 265.859375 189.09375 266.171875 189.042969 C 266.445312 189 266.738281 188.953125 267.042969 188.917969 C 267.351562 188.878906 267.628906 188.828125 267.882812 188.777344 C 267.769531 189.28125 267.660156 189.835938 267.546875 190.441406 C 267.4375 191.046875 267.320312 191.675781 267.207031 192.328125 C 267.089844 192.980469 266.976562 193.640625 266.871094 194.3125 C 266.769531 194.988281 266.664062 195.636719 266.5625 196.265625 C 266.328125 197.738281 266.101562 199.246094 265.878906 200.796875 Z M 261.597656 201.828125 " fill-opacity="1" fill-rule="nonzero"/><path fill="#ffffff" d="M 272.164062 200.574219 C 271.832031 200.65625 271.539062 200.730469 271.273438 200.800781 C 271.285156 200.425781 271.296875 200.058594 271.3125 199.699219 C 271.316406 199.382812 271.324219 199.066406 271.324219 198.753906 C 271.324219 198.4375 271.324219 198.167969 271.332031 197.945312 L 269.875 198.070312 L 269.414062 200.539062 C 269.167969 200.59375 268.882812 200.65625 268.550781 200.722656 C 268.21875 200.792969 267.910156 200.855469 267.625 200.914062 C 267.273438 200.992188 266.921875 201.066406 266.578125 201.136719 C 266.894531 199.613281 267.210938 198.113281 267.523438 196.636719 C 267.648438 196.015625 267.78125 195.371094 267.917969 194.695312 C 268.054688 194.019531 268.191406 193.347656 268.332031 192.675781 C 268.472656 192.003906 268.601562 191.363281 268.730469 190.746094 C 268.855469 190.125 268.960938 189.558594 269.054688 189.046875 C 269.808594 188.925781 270.574219 188.789062 271.355469 188.640625 C 272.132812 188.496094 272.894531 188.320312 273.628906 188.125 C 273.625 188.484375 273.625 188.929688 273.636719 189.464844 C 273.640625 190 273.65625 190.582031 273.679688 191.207031 C 273.695312 191.835938 273.722656 192.492188 273.746094 193.171875 C 273.773438 193.859375 273.796875 194.53125 273.820312 195.195312 C 273.898438 196.738281 273.980469 198.382812 274.0625 200.117188 C 273.734375 200.203125 273.40625 200.277344 273.070312 200.335938 C 272.792969 200.410156 272.492188 200.484375 272.164062 200.574219 Z M 270.128906 196.359375 C 270.171875 196.359375 270.253906 196.34375 270.371094 196.332031 C 270.488281 196.316406 270.605469 196.300781 270.738281 196.285156 C 270.863281 196.265625 270.984375 196.246094 271.09375 196.234375 C 271.207031 196.21875 271.285156 196.203125 271.324219 196.191406 C 271.320312 196.121094 271.316406 196.007812 271.324219 195.84375 C 271.324219 195.679688 271.324219 195.496094 271.324219 195.285156 C 271.324219 195.078125 271.324219 194.847656 271.324219 194.605469 C 271.324219 194.355469 271.324219 194.109375 271.328125 193.875 C 271.324219 193.300781 271.328125 192.683594 271.335938 192.019531 L 271.308594 190.554688 L 271.058594 190.59375 L 270.800781 192.066406 Z M 270.128906 196.359375 " fill-opacity="1" fill-rule="nonzero"/><path fill="#ffffff" d="M 276.414062 200.089844 C 276.121094 200.144531 275.820312 200.203125 275.515625 200.273438 C 275.203125 200.335938 274.925781 200.398438 274.675781 200.453125 C 274.425781 200.507812 274.292969 200.542969 274.269531 200.554688 C 274.339844 200.066406 274.410156 199.523438 274.476562 198.925781 C 274.539062 198.328125 274.605469 197.707031 274.675781 197.054688 C 274.742188 196.398438 274.804688 195.738281 274.855469 195.070312 C 274.910156 194.402344 274.960938 193.757812 275.007812 193.132812 C 275.117188 191.683594 275.222656 190.195312 275.328125 188.667969 L 277.902344 188.023438 C 277.777344 189.542969 277.652344 191.03125 277.535156 192.492188 C 277.484375 193.117188 277.4375 193.761719 277.390625 194.429688 C 277.339844 195.097656 277.292969 195.757812 277.242188 196.414062 C 277.191406 197.074219 277.152344 197.710938 277.109375 198.328125 C 277.078125 198.941406 277.039062 199.496094 277.007812 199.992188 C 276.90625 200.003906 276.707031 200.035156 276.414062 200.089844 Z M 276.414062 200.089844 " fill-opacity="1" fill-rule="nonzero"/><path fill="#ffffff" d="M 281.050781 199.472656 C 280.667969 199.53125 280.28125 199.597656 279.898438 199.675781 C 279.507812 199.757812 279.132812 199.847656 278.761719 199.953125 C 278.398438 200.058594 278.066406 200.171875 277.773438 200.304688 C 277.796875 199.792969 277.824219 199.226562 277.859375 198.605469 C 277.898438 197.984375 277.945312 197.339844 278.003906 196.671875 C 278.066406 196 278.125 195.328125 278.183594 194.644531 C 278.246094 193.964844 278.308594 193.316406 278.375 192.691406 C 278.53125 191.199219 278.695312 189.6875 278.875 188.140625 L 281.773438 187.5 C 281.582031 188.824219 281.398438 190.105469 281.230469 191.359375 C 281.152344 191.898438 281.074219 192.453125 281 193.023438 C 280.929688 193.601562 280.859375 194.160156 280.796875 194.707031 C 280.730469 195.25 280.675781 195.78125 280.628906 196.289062 C 280.582031 196.800781 280.546875 197.253906 280.527344 197.648438 C 280.804688 197.601562 281.101562 197.5625 281.421875 197.53125 C 281.738281 197.496094 282.019531 197.46875 282.261719 197.449219 C 282.292969 197.65625 282.328125 197.867188 282.367188 198.070312 C 282.410156 198.277344 282.453125 198.460938 282.492188 198.625 C 282.535156 198.789062 282.570312 198.9375 282.597656 199.0625 C 282.628906 199.191406 282.648438 199.273438 282.664062 199.320312 C 282.574219 199.328125 282.488281 199.332031 282.402344 199.335938 C 282.320312 199.335938 282.234375 199.339844 282.144531 199.347656 C 281.796875 199.378906 281.429688 199.421875 281.050781 199.472656 Z M 281.050781 199.472656 " fill-opacity="1" fill-rule="nonzero"/><path fill="#ffffff" d="M 287.847656 199.207031 C 287.515625 199.289062 287.222656 199.367188 286.953125 199.433594 C 286.964844 199.0625 286.980469 198.695312 286.996094 198.335938 C 287 198.015625 287.003906 197.703125 287.003906 197.386719 C 287.003906 197.074219 287.007812 196.804688 287.011719 196.578125 L 285.558594 196.707031 L 285.09375 199.171875 C 284.851562 199.230469 284.566406 199.289062 284.234375 199.359375 C 283.902344 199.429688 283.59375 199.488281 283.304688 199.550781 C 282.953125 199.625 282.605469 199.699219 282.261719 199.773438 C 282.582031 198.25 282.894531 196.75 283.203125 195.273438 C 283.332031 194.652344 283.464844 194.007812 283.601562 193.332031 C 283.738281 192.65625 283.875 191.980469 284.019531 191.308594 C 284.152344 190.640625 284.285156 189.996094 284.414062 189.378906 C 284.539062 188.761719 284.648438 188.195312 284.738281 187.679688 C 285.492188 187.558594 286.257812 187.425781 287.039062 187.277344 C 287.816406 187.132812 288.578125 186.957031 289.3125 186.757812 C 289.308594 187.121094 289.308594 187.566406 289.316406 188.097656 C 289.324219 188.636719 289.335938 189.214844 289.363281 189.84375 C 289.378906 190.472656 289.40625 191.125 289.429688 191.8125 C 289.457031 192.496094 289.480469 193.167969 289.503906 193.832031 C 289.582031 195.375 289.664062 197.015625 289.746094 198.753906 C 289.417969 198.839844 289.085938 198.914062 288.753906 198.976562 C 288.476562 199.042969 288.175781 199.117188 287.847656 199.207031 Z M 285.8125 194.996094 C 285.855469 194.992188 285.9375 194.980469 286.054688 194.964844 C 286.171875 194.949219 286.289062 194.933594 286.421875 194.917969 C 286.546875 194.898438 286.667969 194.886719 286.777344 194.867188 C 286.890625 194.851562 286.964844 194.835938 287.007812 194.824219 C 287.003906 194.753906 287 194.640625 287.003906 194.476562 C 287.007812 194.3125 287.007812 194.128906 287.007812 193.917969 C 287.003906 193.710938 287.003906 193.484375 287.007812 193.238281 C 287.007812 192.988281 287.007812 192.746094 287.011719 192.507812 C 287.003906 191.9375 287.007812 191.316406 287.019531 190.652344 L 286.992188 189.1875 L 286.742188 189.226562 L 286.484375 190.699219 Z M 285.8125 194.996094 " fill-opacity="1" fill-rule="nonzero"/><path fill="#ffffff" d="M 296.894531 195.648438 C 296.742188 196.054688 296.515625 196.433594 296.21875 196.78125 C 295.921875 197.125 295.570312 197.4375 295.164062 197.714844 C 294.753906 197.992188 294.320312 198.234375 293.863281 198.4375 C 293.398438 198.640625 292.925781 198.804688 292.433594 198.929688 C 291.945312 199.058594 291.472656 199.140625 291.015625 199.179688 C 290.601562 199.21875 290.214844 199.21875 289.851562 199.179688 C 290.21875 197.183594 290.476562 195.175781 290.621094 193.167969 C 290.765625 191.15625 290.890625 189.136719 291.007812 187.097656 C 291.578125 186.925781 292.175781 186.765625 292.792969 186.617188 C 293.40625 186.46875 294.050781 186.363281 294.71875 186.304688 C 295 186.28125 295.296875 186.289062 295.613281 186.328125 C 295.933594 186.367188 296.226562 186.464844 296.5 186.621094 C 296.773438 186.777344 297.007812 186.992188 297.207031 187.269531 C 297.40625 187.542969 297.523438 187.902344 297.5625 188.351562 C 297.597656 188.777344 297.5625 189.175781 297.457031 189.558594 C 297.347656 189.9375 297.199219 190.292969 297.007812 190.609375 C 296.816406 190.929688 296.589844 191.210938 296.332031 191.453125 C 296.070312 191.695312 295.800781 191.882812 295.519531 192.019531 C 295.671875 192.085938 295.832031 192.183594 296 192.316406 C 296.171875 192.449219 296.328125 192.605469 296.480469 192.789062 C 296.632812 192.976562 296.761719 193.199219 296.867188 193.457031 C 296.972656 193.714844 297.042969 194.015625 297.074219 194.351562 C 297.113281 194.8125 297.050781 195.242188 296.894531 195.648438 Z M 293.023438 193.667969 C 293.003906 193.878906 292.984375 194.078125 292.96875 194.269531 C 292.949219 194.460938 292.929688 194.664062 292.910156 194.875 C 292.890625 195.085938 292.867188 195.332031 292.847656 195.613281 C 293.058594 195.578125 293.292969 195.515625 293.554688 195.433594 C 293.820312 195.355469 294.070312 195.246094 294.304688 195.105469 C 294.539062 194.96875 294.734375 194.792969 294.882812 194.585938 C 295.035156 194.375 295.097656 194.128906 295.074219 193.851562 C 295.054688 193.648438 294.988281 193.488281 294.867188 193.363281 C 294.75 193.238281 294.609375 193.136719 294.4375 193.058594 C 294.269531 192.984375 294.085938 192.9375 293.894531 192.914062 C 293.703125 192.890625 293.523438 192.890625 293.355469 192.902344 C 293.300781 192.910156 293.253906 192.910156 293.210938 192.914062 C 293.171875 192.917969 293.132812 192.929688 293.085938 192.945312 C 293.066406 193.214844 293.042969 193.457031 293.023438 193.667969 Z M 293.453125 189.269531 C 293.433594 189.4375 293.417969 189.613281 293.402344 189.804688 C 293.386719 189.992188 293.367188 190.175781 293.34375 190.355469 C 293.320312 190.542969 293.300781 190.699219 293.292969 190.832031 C 293.535156 190.765625 293.773438 190.683594 294.011719 190.585938 C 294.253906 190.484375 294.464844 190.378906 294.648438 190.265625 C 294.835938 190.15625 294.984375 190.039062 295.09375 189.914062 C 295.199219 189.792969 295.25 189.667969 295.234375 189.535156 C 295.222656 189.363281 295.160156 189.234375 295.050781 189.136719 C 294.941406 189.039062 294.800781 188.960938 294.636719 188.910156 C 294.464844 188.855469 294.292969 188.824219 294.121094 188.8125 C 293.945312 188.800781 293.789062 188.800781 293.65625 188.808594 L 293.488281 188.824219 C 293.476562 188.949219 293.464844 189.097656 293.453125 189.269531 Z M 293.453125 189.269531 " fill-opacity="1" fill-rule="nonzero"/><path fill="#ffffff" d="M 300.515625 197.78125 C 300.132812 197.835938 299.746094 197.90625 299.359375 197.984375 C 298.972656 198.058594 298.597656 198.152344 298.226562 198.257812 C 297.863281 198.367188 297.53125 198.480469 297.238281 198.609375 C 297.261719 198.097656 297.289062 197.535156 297.328125 196.910156 C 297.363281 196.289062 297.414062 195.644531 297.472656 194.976562 C 297.527344 194.308594 297.589844 193.632812 297.648438 192.953125 C 297.710938 192.273438 297.773438 191.621094 297.84375 190.996094 C 297.992188 189.507812 298.160156 187.992188 298.339844 186.445312 L 301.234375 185.804688 C 301.046875 187.128906 300.867188 188.414062 300.695312 189.667969 C 300.617188 190.199219 300.542969 190.761719 300.46875 191.328125 C 300.394531 191.90625 300.324219 192.464844 300.257812 193.011719 C 300.195312 193.558594 300.140625 194.085938 300.09375 194.59375 C 300.050781 195.105469 300.015625 195.558594 299.992188 195.953125 C 300.269531 195.90625 300.566406 195.867188 300.886719 195.835938 C 301.203125 195.800781 301.484375 195.773438 301.726562 195.75 C 301.757812 195.960938 301.792969 196.171875 301.832031 196.375 C 301.875 196.582031 301.914062 196.765625 301.960938 196.929688 C 302.003906 197.09375 302.035156 197.242188 302.066406 197.367188 C 302.09375 197.492188 302.113281 197.578125 302.128906 197.625 C 302.042969 197.632812 301.953125 197.636719 301.867188 197.640625 C 301.785156 197.640625 301.699219 197.644531 301.609375 197.65625 C 301.261719 197.683594 300.898438 197.726562 300.515625 197.78125 Z M 300.515625 197.78125 " fill-opacity="1" fill-rule="nonzero"/><path fill="#ffffff" d="M 302.222656 198.152344 L 303.382812 186.054688 L 308.632812 185.144531 C 308.578125 185.394531 308.527344 185.652344 308.5 185.914062 C 308.460938 186.128906 308.425781 186.359375 308.394531 186.589844 C 308.363281 186.820312 308.339844 187.03125 308.324219 187.214844 C 308.210938 187.234375 308.054688 187.257812 307.847656 187.277344 C 307.644531 187.300781 307.421875 187.328125 307.1875 187.351562 C 306.957031 187.378906 306.71875 187.402344 306.480469 187.421875 C 306.238281 187.445312 306.03125 187.460938 305.851562 187.476562 L 305.523438 190.527344 C 305.871094 190.476562 306.195312 190.429688 306.492188 190.390625 C 306.738281 190.359375 306.988281 190.332031 307.242188 190.308594 C 307.5 190.285156 307.6875 190.265625 307.8125 190.242188 C 307.792969 190.558594 307.78125 190.871094 307.765625 191.175781 C 307.75 191.480469 307.734375 191.789062 307.703125 192.109375 C 307.59375 192.128906 307.414062 192.152344 307.160156 192.183594 C 306.910156 192.207031 306.660156 192.238281 306.402344 192.273438 C 306.113281 192.308594 305.796875 192.347656 305.453125 192.390625 L 305.148438 195.519531 L 307.558594 194.921875 L 307.558594 196.84375 Z M 302.222656 198.152344 " fill-opacity="1" fill-rule="nonzero"/><path fill="#ffffff" d="M 263.925781 222.300781 C 263.726562 223.386719 263.425781 224.378906 263.019531 225.28125 C 262.617188 226.183594 262.097656 226.949219 261.46875 227.578125 C 260.835938 228.207031 260.050781 228.5625 259.113281 228.644531 C 258.488281 228.699219 257.800781 228.621094 257.054688 228.417969 C 256.308594 228.210938 255.46875 227.824219 254.542969 227.253906 L 256.402344 221.894531 C 256.53125 222.105469 256.769531 222.28125 257.105469 222.421875 C 257.445312 222.558594 257.800781 222.613281 258.183594 222.582031 C 258.449219 222.558594 258.671875 222.316406 258.84375 221.851562 C 259.015625 221.386719 259.160156 220.851562 259.261719 220.242188 C 259.367188 219.640625 259.433594 219.019531 259.472656 218.386719 C 259.507812 217.753906 259.527344 217.246094 259.542969 216.863281 C 259.773438 214.660156 259.988281 212.464844 260.183594 210.277344 C 260.375 208.085938 260.632812 205.902344 260.960938 203.710938 C 261.957031 203.539062 262.933594 203.308594 263.886719 203.035156 C 264.84375 202.757812 265.796875 202.445312 266.753906 202.09375 C 266.519531 203.257812 266.285156 204.585938 266.054688 206.070312 C 265.824219 207.550781 265.609375 209.066406 265.40625 210.613281 C 265.203125 212.164062 265.011719 213.679688 264.839844 215.167969 C 264.667969 216.65625 264.519531 217.992188 264.398438 219.171875 C 264.28125 220.171875 264.125 221.21875 263.925781 222.300781 Z M 263.925781 222.300781 " fill-opacity="1" fill-rule="nonzero"/><path fill="#ffffff" d="M 281.972656 213.574219 C 281.722656 215.226562 281.332031 216.757812 280.804688 218.167969 C 280.269531 219.574219 279.625 220.84375 278.859375 221.980469 C 278.089844 223.117188 277.269531 224.097656 276.394531 224.929688 C 275.523438 225.761719 274.625 226.410156 273.699219 226.882812 C 272.773438 227.359375 271.875 227.632812 271.003906 227.710938 C 270.269531 227.773438 269.585938 227.691406 268.960938 227.464844 C 268.332031 227.238281 267.773438 226.871094 267.28125 226.363281 C 266.785156 225.855469 266.371094 225.183594 266.042969 224.34375 C 265.710938 223.507812 265.492188 222.484375 265.386719 221.277344 C 265.28125 220.027344 265.316406 218.699219 265.511719 217.285156 C 265.707031 215.878906 266.007812 214.464844 266.429688 213.054688 C 266.84375 211.648438 267.390625 210.296875 268.0625 209 C 268.738281 207.703125 269.5 206.539062 270.359375 205.503906 C 271.210938 204.476562 272.148438 203.636719 273.175781 202.984375 C 274.195312 202.332031 275.285156 201.957031 276.449219 201.855469 C 277.453125 201.765625 278.300781 201.902344 278.996094 202.257812 C 279.691406 202.613281 280.253906 203.109375 280.675781 203.730469 C 281.101562 204.359375 281.429688 205.078125 281.65625 205.890625 C 281.886719 206.703125 282.035156 207.523438 282.109375 208.347656 C 282.265625 210.179688 282.222656 211.921875 281.972656 213.574219 Z M 270.5 220.734375 C 270.609375 220.992188 270.757812 221.21875 270.929688 221.40625 C 271.105469 221.589844 271.3125 221.75 271.558594 221.875 C 271.804688 221.996094 272.066406 222.046875 272.332031 222.023438 C 273.335938 221.9375 274.199219 221.511719 274.921875 220.753906 C 275.640625 219.992188 276.21875 219.089844 276.640625 218.039062 C 277.070312 216.984375 277.371094 215.878906 277.550781 214.71875 C 277.730469 213.554688 277.777344 212.507812 277.699219 211.570312 C 277.675781 211.300781 277.632812 211.007812 277.574219 210.699219 C 277.511719 210.390625 277.417969 210.105469 277.296875 209.847656 C 277.171875 209.585938 276.996094 209.371094 276.765625 209.203125 C 276.539062 209.027344 276.246094 208.960938 275.886719 208.992188 C 275.175781 209.054688 274.53125 209.289062 273.960938 209.699219 C 273.390625 210.109375 272.890625 210.632812 272.460938 211.265625 C 272.03125 211.894531 271.671875 212.605469 271.378906 213.382812 C 271.085938 214.160156 270.84375 214.949219 270.65625 215.742188 C 270.46875 216.535156 270.347656 217.300781 270.300781 218.046875 C 270.253906 218.796875 270.253906 219.4375 270.300781 219.972656 C 270.324219 220.222656 270.386719 220.472656 270.5 220.734375 Z M 270.5 220.734375 " fill-opacity="1" fill-rule="nonzero"/><path fill="#ffffff" d="M 295.492188 219.535156 C 295.179688 220.351562 294.726562 221.105469 294.136719 221.796875 C 293.546875 222.488281 292.839844 223.113281 292.023438 223.671875 C 291.207031 224.222656 290.335938 224.703125 289.417969 225.113281 C 288.492188 225.519531 287.542969 225.847656 286.566406 226.101562 C 285.585938 226.355469 284.640625 226.523438 283.726562 226.605469 C 282.898438 226.675781 282.125 226.675781 281.398438 226.605469 C 282.128906 222.601562 282.640625 218.589844 282.933594 214.574219 C 283.222656 210.554688 283.488281 206.511719 283.714844 202.4375 C 284.855469 202.089844 286.042969 201.769531 287.277344 201.472656 C 288.507812 201.171875 289.792969 200.964844 291.132812 200.847656 C 291.691406 200.800781 292.289062 200.816406 292.925781 200.894531 C 293.5625 200.976562 294.152344 201.171875 294.699219 201.488281 C 295.242188 201.796875 295.710938 202.226562 296.105469 202.78125 C 296.503906 203.332031 296.742188 204.050781 296.816406 204.941406 C 296.890625 205.792969 296.820312 206.597656 296.609375 207.359375 C 296.394531 208.121094 296.09375 208.820312 295.710938 209.464844 C 295.328125 210.101562 294.875 210.664062 294.355469 211.148438 C 293.835938 211.632812 293.292969 212.011719 292.730469 212.285156 C 293.039062 212.414062 293.359375 212.613281 293.695312 212.878906 C 294.03125 213.140625 294.355469 213.457031 294.65625 213.820312 C 294.957031 214.1875 295.214844 214.636719 295.429688 215.15625 C 295.644531 215.675781 295.777344 216.273438 295.835938 216.941406 C 295.917969 217.859375 295.804688 218.722656 295.492188 219.535156 Z M 287.742188 215.570312 C 287.703125 215.992188 287.664062 216.390625 287.628906 216.777344 C 287.59375 217.164062 287.558594 217.566406 287.515625 217.988281 C 287.472656 218.410156 287.433594 218.902344 287.390625 219.464844 C 287.808594 219.382812 288.285156 219.265625 288.808594 219.105469 C 289.335938 218.949219 289.832031 218.730469 290.304688 218.453125 C 290.773438 218.175781 291.164062 217.828125 291.460938 217.40625 C 291.761719 216.988281 291.890625 216.496094 291.839844 215.9375 C 291.804688 215.535156 291.671875 215.210938 291.433594 214.964844 C 291.199219 214.710938 290.914062 214.511719 290.574219 214.363281 C 290.234375 214.214844 289.871094 214.113281 289.484375 214.070312 C 289.097656 214.027344 288.738281 214.019531 288.402344 214.046875 C 288.292969 214.054688 288.199219 214.0625 288.121094 214.074219 C 288.042969 214.078125 287.957031 214.09375 287.871094 214.128906 C 287.828125 214.671875 287.785156 215.152344 287.742188 215.570312 Z M 288.597656 206.773438 C 288.570312 207.113281 288.539062 207.46875 288.503906 207.84375 C 288.46875 208.214844 288.429688 208.585938 288.382812 208.949219 C 288.335938 209.3125 288.300781 209.632812 288.28125 209.90625 C 288.761719 209.769531 289.242188 209.605469 289.71875 209.40625 C 290.195312 209.210938 290.625 209 291 208.773438 C 291.371094 208.550781 291.667969 208.316406 291.882812 208.074219 C 292.097656 207.828125 292.191406 207.570312 292.167969 207.304688 C 292.140625 206.96875 292.015625 206.707031 291.796875 206.507812 C 291.574219 206.316406 291.296875 206.167969 290.960938 206.058594 C 290.628906 205.953125 290.285156 205.886719 289.933594 205.863281 C 289.585938 205.835938 289.277344 205.832031 289.003906 205.859375 L 288.671875 205.886719 C 288.644531 206.136719 288.625 206.433594 288.597656 206.773438 Z M 288.597656 206.773438 " fill-opacity="1" fill-rule="nonzero"/><path fill="#ffffff" d="M 309.457031 219.316406 C 309.0625 220.375 308.488281 221.308594 307.742188 222.117188 C 306.992188 222.925781 306.078125 223.578125 305.011719 224.074219 C 303.941406 224.570312 302.769531 224.878906 301.5 224.988281 C 300.605469 225.066406 299.691406 224.90625 298.753906 224.5 C 297.824219 224.097656 296.894531 223.410156 295.980469 222.429688 L 298.039062 217.355469 C 298.21875 217.632812 298.476562 217.914062 298.816406 218.1875 C 299.152344 218.457031 299.53125 218.691406 299.9375 218.882812 C 300.347656 219.070312 300.753906 219.21875 301.15625 219.328125 C 301.5625 219.441406 301.917969 219.484375 302.230469 219.457031 C 302.5 219.433594 302.773438 219.367188 303.058594 219.25 C 303.339844 219.136719 303.597656 218.980469 303.824219 218.777344 C 304.058594 218.582031 304.234375 218.351562 304.359375 218.105469 C 304.484375 217.859375 304.53125 217.578125 304.503906 217.269531 C 304.457031 216.734375 304.242188 216.25 303.851562 215.824219 C 303.46875 215.398438 303 215 302.453125 214.628906 C 301.902344 214.261719 301.308594 213.890625 300.667969 213.519531 C 300.027344 213.144531 299.4375 212.746094 298.894531 212.324219 C 298.355469 211.894531 297.875 211.410156 297.472656 210.859375 C 297.0625 210.3125 296.824219 209.679688 296.765625 208.964844 C 296.664062 207.804688 296.914062 206.691406 297.519531 205.628906 C 298.125 204.5625 298.914062 203.621094 299.890625 202.804688 C 300.863281 201.988281 301.945312 201.3125 303.136719 200.78125 C 304.324219 200.25 305.46875 199.9375 306.566406 199.84375 C 307.167969 199.789062 307.742188 199.8125 308.292969 199.910156 C 308.835938 200.011719 309.320312 200.203125 309.738281 200.496094 C 310.15625 200.785156 310.503906 201.164062 310.78125 201.636719 C 311.0625 202.105469 311.234375 202.710938 311.296875 203.445312 C 311.320312 203.761719 311.320312 204.078125 311.292969 204.394531 C 311.265625 204.710938 311.242188 205.046875 311.230469 205.410156 L 306.5 207.238281 C 306.523438 207.058594 306.550781 206.875 306.566406 206.695312 C 306.585938 206.511719 306.589844 206.335938 306.570312 206.152344 C 306.515625 205.484375 306.355469 205.007812 306.09375 204.726562 C 305.832031 204.445312 305.515625 204.320312 305.132812 204.355469 C 304.957031 204.371094 304.746094 204.457031 304.5 204.613281 C 304.25 204.769531 304.011719 204.964844 303.777344 205.199219 C 303.535156 205.4375 303.339844 205.703125 303.1875 206.007812 C 303.035156 206.316406 302.96875 206.636719 303 206.972656 C 303.046875 207.507812 303.234375 207.9375 303.570312 208.273438 C 303.902344 208.601562 304.304688 208.90625 304.773438 209.179688 C 305.25 209.453125 305.765625 209.730469 306.316406 210.007812 C 306.867188 210.285156 307.390625 210.664062 307.882812 211.132812 C 308.375 211.613281 308.800781 212.21875 309.167969 212.964844 C 309.539062 213.707031 309.773438 214.671875 309.878906 215.855469 C 309.988281 217.105469 309.84375 218.257812 309.457031 219.316406 Z M 309.457031 219.316406 " fill-opacity="1" fill-rule="nonzero"/><path fill="#ffffff" d="M 228.144531 233.304688 L 225.734375 189.769531 L 337.78125 175.53125 L 338.023438 175.75 L 364.140625 199.9375 L 363.789062 200.433594 L 344.222656 228.59375 L 343.875 228.609375 Z M 227.207031 190.996094 L 229.464844 231.851562 L 343.472656 227.21875 L 362.292969 200.136719 L 337.3125 177.003906 Z M 227.207031 190.996094 " fill-opacity="1" fill-rule="nonzero"/><path fill="#5f52bb" d="M 127.792969 133.050781 L 62.25 149.863281 C -0.0078125 169.996094 28.996094 228.488281 28.996094 228.488281 L 109.152344 231.378906 L 140.832031 153.714844 L 142.054688 140.757812 Z M 127.792969 133.050781 " fill-opacity="1" fill-rule="nonzero"/><path fill="#f0a3ed" d="M 45.664062 196.285156 L 26.800781 183.371094 L 28.386719 181.0625 L 45.507812 192.785156 L 86.617188 158.945312 L 88.398438 161.109375 Z M 45.664062 196.285156 " fill-opacity="1" fill-rule="nonzero"/><path fill="#f0a3ed" d="M 25.710938 210.058594 L 25.996094 207.269531 L 112.488281 216.074219 L 112.207031 218.863281 Z M 25.710938 210.058594 " fill-opacity="1" fill-rule="nonzero"/><path fill="#f0a3ed" d="M 28.71875 222.535156 L 28.929688 219.742188 L 118.191406 226.578125 L 117.976562 229.371094 Z M 28.71875 222.535156 " fill-opacity="1" fill-rule="nonzero"/><path fill="#f0a3ed" d="M 25.847656 191.332031 L 32.84375 179.285156 L 41.945312 185.308594 L 33.894531 196.617188 Z M 25.847656 191.332031 " fill-opacity="1" fill-rule="nonzero"/><path fill="#ffa200" d="M 143.859375 100.164062 C 151.386719 118.777344 135.914062 142.597656 109.300781 153.367188 C 82.691406 164.140625 55.015625 157.789062 47.488281 139.175781 C 39.964844 120.566406 55.4375 96.746094 82.050781 85.976562 C 108.664062 75.199219 136.335938 81.554688 143.859375 100.164062 Z M 143.859375 100.164062 " fill-opacity="1" fill-rule="nonzero"/><path fill="#002d51" d="M 98.972656 161.429688 C 73.253906 161.429688 52.332031 145.085938 52.332031 125 C 52.332031 104.914062 73.253906 88.574219 98.972656 88.574219 C 124.691406 88.574219 145.613281 104.914062 145.613281 125 C 145.613281 145.085938 124.691406 161.429688 98.972656 161.429688 Z M 98.972656 91.375 C 74.800781 91.375 55.132812 106.457031 55.132812 125 C 55.132812 143.539062 74.800781 158.625 98.972656 158.625 C 123.144531 158.625 142.8125 143.539062 142.8125 125 C 142.8125 106.457031 123.144531 91.375 98.972656 91.375 Z M 98.972656 91.375 " fill-opacity="1" fill-rule="nonzero"/><path fill="#002d51" d="M 95.675781 155.277344 C 75.578125 155.277344 59.226562 142.472656 59.226562 126.738281 C 59.226562 111.007812 75.578125 98.203125 95.675781 98.203125 C 115.773438 98.203125 132.125 111.007812 132.125 126.738281 C 132.125 142.472656 115.773438 155.277344 95.675781 155.277344 Z M 95.675781 101.007812 C 77.125 101.007812 62.027344 112.550781 62.027344 126.738281 C 62.027344 140.929688 77.125 152.472656 95.675781 152.472656 C 114.230469 152.472656 129.324219 140.929688 129.324219 126.738281 C 129.324219 112.550781 114.230469 101.007812 95.675781 101.007812 Z M 95.675781 101.007812 " fill-opacity="1" fill-rule="nonzero"/><path fill="#002d51" d="M 92.90625 148.363281 C 77.027344 148.363281 64.105469 138.222656 64.105469 125.75 C 64.105469 113.285156 77.023438 103.136719 92.90625 103.136719 C 108.785156 103.136719 121.703125 113.285156 121.703125 125.75 C 121.703125 138.222656 108.785156 148.363281 92.90625 148.363281 Z M 92.90625 105.941406 C 78.570312 105.941406 66.90625 114.832031 66.90625 125.75 C 66.90625 136.675781 78.570312 145.5625 92.90625 145.5625 C 107.238281 145.5625 118.902344 136.675781 118.902344 125.75 C 118.902344 114.828125 107.238281 105.941406 92.90625 105.941406 Z M 92.90625 105.941406 " fill-opacity="1" fill-rule="nonzero"/><path fill="#002d51" d="M 109.675781 77.191406 L 64.347656 177.179688 C 64.347656 177.179688 52.972656 171.050781 50.347656 174.726562 C 47.722656 178.40625 61.371094 182.960938 61.371094 182.960938 C 61.371094 182.960938 48.976562 184.886719 50.011719 187.335938 C 51.046875 189.789062 65.75 187.335938 65.75 187.335938 C 65.75 187.335938 47.898438 192.238281 51.222656 196.617188 C 54.546875 200.996094 90.601562 206.949219 135.753906 170.351562 C 180.90625 133.753906 127.355469 49.875 127.355469 49.875 Z M 109.675781 77.191406 " fill-opacity="1" fill-rule="nonzero"/><path fill="#ff6ea5" d="M 207.167969 144.617188 C 182.484375 157.5625 153.597656 147.238281 153.597656 147.238281 L 138.898438 177.175781 L 129.628906 173.503906 L 130.164062 159.492188 L 136.277344 144.953125 C 136.277344 144.953125 121.675781 141.5625 117.292969 130.734375 C 71.105469 136.070312 76.929688 112.171875 91.824219 108.363281 C 107.578125 104.328125 118.261719 115.015625 118.261719 115.015625 L 128.761719 67.203125 L 198.585938 56.359375 C 230.605469 85.078125 231.835938 131.644531 207.167969 144.617188 Z M 207.167969 144.617188 " fill-opacity="1" fill-rule="nonzero"/><path fill="#002d51" d="M 184.3125 123.277344 C 179.757812 123.277344 174.941406 122.496094 171.867188 120.917969 L 173.144531 118.425781 C 179.140625 121.507812 191.261719 120.816406 193.628906 118.621094 C 193.878906 118.386719 193.851562 118.316406 193.796875 118.1875 C 193.621094 117.777344 193.3125 117.496094 192.832031 117.300781 C 190.625 116.414062 185.796875 117.828125 183.265625 118.925781 L 181.640625 119.632812 L 177.78125 97.9375 L 180.539062 97.445312 L 183.789062 115.714844 C 186.265625 114.824219 190.882812 113.503906 193.867188 114.699219 C 195.042969 115.164062 195.90625 115.992188 196.371094 117.097656 C 196.910156 118.371094 196.605469 119.675781 195.535156 120.671875 C 193.671875 122.402344 189.136719 123.277344 184.3125 123.277344 Z M 184.3125 123.277344 " fill-opacity="1" fill-rule="nonzero"/><path fill="#ffffff" d="M 148.050781 104.175781 C 147.898438 104.609375 147.816406 105.0625 147.816406 105.523438 C 147.816406 109.472656 153.585938 112.675781 160.710938 112.675781 C 167.832031 112.675781 173.605469 109.472656 173.605469 105.523438 C 173.605469 105.46875 173.59375 105.414062 173.589844 105.355469 Z M 148.050781 104.175781 " fill-opacity="1" fill-rule="nonzero"/><path fill="#002d51" d="M 160.773438 104.761719 C 161.097656 107.652344 163.589844 109.914062 166.652344 109.914062 C 169.527344 109.914062 171.925781 107.933594 172.476562 105.308594 Z M 160.773438 104.761719 " fill-opacity="1" fill-rule="nonzero"/><path fill="#002d51" d="M 138.144531 105 L 138.257812 102.203125 L 175.625 103.738281 L 175.511719 106.539062 Z M 138.144531 105 " fill-opacity="1" fill-rule="nonzero"/><path fill="#ffffff" d="M 184.980469 103.777344 C 184.910156 104.234375 184.90625 104.691406 184.988281 105.148438 C 185.695312 109.035156 191.941406 111.15625 198.953125 109.886719 C 205.960938 108.617188 211.070312 104.433594 210.367188 100.550781 C 210.355469 100.492188 210.332031 100.441406 210.320312 100.390625 Z M 184.980469 103.777344 " fill-opacity="1" fill-rule="nonzero"/><path fill="#002d51" d="M 197.605469 102.089844 C 198.441406 104.875 201.292969 106.652344 204.308594 106.105469 C 207.136719 105.59375 209.140625 103.222656 209.21875 100.535156 Z M 197.605469 102.089844 " fill-opacity="1" fill-rule="nonzero"/><path fill="#002d51" d="M 183.878906 102.792969 L 217.003906 97.523438 L 217.445312 100.289062 L 184.320312 105.5625 Z M 183.878906 102.792969 " fill-opacity="1" fill-rule="nonzero"/><path fill="#5f52bb" d="M 154.972656 128.621094 C 154.972656 132.601562 150.847656 135.828125 145.761719 135.828125 C 140.675781 135.828125 136.554688 132.601562 136.554688 128.621094 C 136.554688 124.644531 140.675781 121.417969 145.761719 121.417969 C 150.851562 121.417969 154.972656 124.644531 154.972656 128.621094 Z M 154.972656 128.621094 " fill-opacity="1" fill-rule="nonzero"/><path fill="#002d51" d="M 156.855469 134.652344 C 152.550781 129.222656 148.003906 126.226562 143.347656 125.753906 C 138.082031 125.21875 134.511719 128.144531 134.476562 128.175781 L 132.679688 126.023438 C 132.859375 125.875 137.203125 122.316406 143.632812 122.964844 C 149.066406 123.519531 154.253906 126.867188 159.046875 132.90625 Z M 156.855469 134.652344 " fill-opacity="1" fill-rule="nonzero"/><path fill="#002d51" d="M 183.878906 92.070312 L 216.730469 88.398438 L 185.386719 98.910156 Z M 183.878906 92.070312 " fill-opacity="1" fill-rule="nonzero"/><path fill="#002d51" d="M 144.1875 87.992188 L 173.957031 99.605469 L 142.375 94.757812 Z M 144.1875 87.992188 " fill-opacity="1" fill-rule="nonzero"/><path fill="#002d51" d="M 103.800781 127.644531 C 103.589844 127.394531 101.730469 125.128906 101.972656 122.65625 C 102.089844 121.464844 102.683594 120.417969 103.679688 119.628906 C 104.28125 119.15625 104.929688 118.867188 105.601562 118.722656 C 102.382812 116.800781 98.140625 115.132812 93.769531 115.910156 C 91.269531 116.355469 89.722656 117.230469 89.164062 118.519531 C 88.402344 120.269531 89.554688 122.683594 90.0625 123.464844 L 87.71875 125 C 87.609375 124.835938 85.082031 120.917969 86.585938 117.421875 C 87.539062 115.203125 89.792969 113.769531 93.28125 113.152344 C 103.75 111.296875 112.964844 120.800781 113.351562 121.207031 L 111.496094 123.292969 C 110.441406 122.5 107.058594 120.527344 105.417969 121.824219 C 105.015625 122.144531 104.804688 122.492188 104.761719 122.921875 C 104.648438 124.019531 105.597656 125.421875 105.9375 125.828125 Z M 103.800781 127.644531 " fill-opacity="1" fill-rule="nonzero"/><path fill="#5f52bb" d="M 105.828125 86.402344 L 268.414062 47.597656 C 268.414062 47.597656 258.105469 25.53125 204.542969 59.503906 C 204.542969 59.503906 184.933594 23.253906 143.28125 32.886719 C 101.625 42.515625 105.828125 86.402344 105.828125 86.402344 Z M 105.828125 86.402344 " fill-opacity="1" fill-rule="nonzero"/><path fill="#5f52bb" d="M 145.675781 29.332031 C 145.867188 30.28125 144.011719 31.453125 141.539062 31.953125 C 139.066406 32.449219 136.910156 32.082031 136.71875 31.136719 C 136.527344 30.1875 138.378906 29.015625 140.851562 28.515625 C 143.324219 28.019531 145.484375 28.386719 145.675781 29.332031 Z M 145.675781 29.332031 " fill-opacity="1" fill-rule="nonzero"/><path fill="#ff6ea5" d="M 127.792969 223.9375 L 115.804688 227.089844 L 177.585938 328.128906 L 198.410156 312.71875 C 198.410156 312.71875 145.378906 233.917969 127.792969 223.9375 Z M 127.792969 223.9375 " fill-opacity="1" fill-rule="nonzero"/><path fill="#ff6ea5" d="M 123.914062 223.9375 L 112.652344 228.664062 L 94.976562 272.621094 L 67.847656 252.65625 L 48.949219 259.308594 C 48.949219 259.308594 67.148438 296.085938 94.976562 292.40625 C 122.800781 288.730469 126.425781 240.746094 123.914062 223.9375 Z M 123.914062 223.9375 " fill-opacity="1" fill-rule="nonzero"/><path fill="#00c5f4" d="M 79.953125 290.539062 L 90.699219 269.476562 L 67.847656 252.65625 L 48.949219 259.308594 C 48.949219 259.3125 60.78125 283.203125 79.953125 290.539062 Z M 79.953125 290.539062 " fill-opacity="1" fill-rule="nonzero"/><path fill="#002d51" d="M 80.097656 259.484375 L 66.972656 242.324219 L 52.972656 246.355469 L 56.296875 252.480469 L 48.070312 247.230469 L 0.292969 279.449219 L 3.792969 285.226562 L 8.167969 281.023438 C 8.167969 281.023438 25.015625 320.601562 52.097656 267.890625 L 61.019531 284.175781 C 61.019531 284.175781 76.996094 279.511719 61.019531 264.386719 C 61.023438 264.386719 72.222656 269.992188 80.097656 259.484375 Z M 80.097656 259.484375 " fill-opacity="1" fill-rule="nonzero"/><path fill="#00c5f4" d="M 177.585938 328.132812 L 198.410156 312.71875 C 198.410156 312.71875 187.480469 296.480469 173.902344 277.8125 C 163.136719 280.691406 157.480469 286.28125 154.609375 290.558594 Z M 177.585938 328.132812 " fill-opacity="1" fill-rule="nonzero"/><path fill="#002d51" d="M 168.832031 316.75 L 180.558594 338.988281 L 193.683594 331.984375 L 190.011719 327.867188 L 199.460938 329.53125 L 243.214844 296.085938 L 240.761719 291.007812 L 237.4375 293.28125 C 237.4375 293.28125 218.363281 260.886719 198.410156 309.394531 L 192.460938 296.433594 C 192.460938 296.433594 174.257812 302.390625 189.484375 315.871094 C 189.484375 315.871094 180.734375 308.867188 168.832031 316.75 Z M 168.832031 316.75 " fill-opacity="1" fill-rule="nonzero"/><path fill="#00c5f4" d="M 95.851562 203.796875 L 106 242.324219 L 147.65625 223.0625 L 136.453125 202.921875 Z M 95.851562 203.796875 " fill-opacity="1" fill-rule="nonzero"/><path fill="#372c7d" d="M 103.726562 240.222656 L 146.429688 217.457031 L 151.855469 228.839844 L 105.300781 245.300781 Z M 103.726562 240.222656 " fill-opacity="1" fill-rule="nonzero"/><path fill="#00c5f4" d="M 235.335938 161.0625 C 187.902344 197.152344 143.28125 180.859375 143.28125 180.859375 L 143.28125 164.398438 C 143.28125 164.398438 183.578125 183.925781 224.992188 148.707031 Z M 235.335938 161.0625 " fill-opacity="1" fill-rule="nonzero"/><path fill="#ff6ea5" d="M 236.035156 160.027344 L 226.617188 147.292969 C 262.765625 115.199219 232.1875 89.617188 232.1875 89.617188 C 232.1875 89.617188 220.285156 103.625 216.605469 89.617188 L 185.980469 91.71875 L 180.203125 75.441406 C 180.203125 75.441406 203.136719 62.664062 239.707031 70.535156 C 239.707031 70.535156 300.792969 117.636719 236.035156 160.027344 Z M 236.035156 160.027344 " fill-opacity="1" fill-rule="nonzero"/><path fill="#002d51" d="M 227.546875 148.339844 L 225.6875 146.246094 C 237.242188 135.988281 243.019531 125.402344 242.863281 114.78125 C 242.691406 102.90625 235.03125 94.316406 232.269531 91.605469 C 230.1875 93.761719 225.347656 98.105469 220.929688 97.09375 C 218.496094 96.542969 216.699219 94.523438 215.578125 91.09375 L 185.019531 93.1875 L 178.882812 75.910156 L 181.519531 74.972656 L 186.945312 90.25 L 217.664062 88.140625 L 217.957031 89.261719 C 218.753906 92.285156 219.960938 94 221.550781 94.363281 C 224.804688 95.101562 229.566406 90.535156 231.121094 88.710938 L 232.019531 87.652344 L 233.085938 88.542969 C 233.589844 88.964844 245.433594 99.050781 245.664062 114.738281 C 245.828125 126.210938 239.734375 137.515625 227.546875 148.339844 Z M 227.546875 148.339844 " fill-opacity="1" fill-rule="nonzero"/><path fill="#002d51" d="M 183.992188 85.015625 L 216.625 82.613281 L 216.832031 85.410156 L 184.199219 87.8125 Z M 183.992188 85.015625 " fill-opacity="1" fill-rule="nonzero"/><path fill="#002d51" d="M 183.257812 80.699219 L 215.433594 77.894531 L 215.675781 80.683594 L 183.503906 83.488281 Z M 183.257812 80.699219 " fill-opacity="1" fill-rule="nonzero"/><path fill="#002d51" d="M 181.042969 77.199219 L 215.289062 70.574219 L 215.824219 73.324219 L 181.574219 79.949219 Z M 181.042969 77.199219 " fill-opacity="1" fill-rule="nonzero"/><path fill="#372c7d" d="M 219.238281 150.390625 L 228.859375 141.808594 L 245.488281 156.167969 L 227.8125 168.949219 Z M 219.238281 150.390625 " fill-opacity="1" fill-rule="nonzero"/><path fill="#5f52bb" d="M 147.816406 164.75 L 145.761719 164.75 L 139.253906 197.738281 L 138.203125 203.8125 C 138.203125 203.8125 169.707031 190.382812 147.816406 164.75 Z M 147.816406 164.75 " fill-opacity="1" fill-rule="nonzero"/><path fill="#00c5f4" d="M 106.351562 205.902344 L 139.429688 205.902344 L 145.730469 189.265625 L 153.289062 185.875 C 151.714844 175.367188 146.78125 167.199219 146.78125 167.199219 L 154.480469 161.335938 L 144.503906 154.941406 L 137.855469 168.949219 L 136.980469 153.714844 L 125.253906 153.714844 L 126.652344 158.792969 C 126.652344 158.792969 71.171875 168.777344 77.125 215.882812 Z M 106.351562 205.902344 " fill-opacity="1" fill-rule="nonzero"/><path fill="#372c7d" d="M 92 208.351562 L 141.003906 203.535156 L 141.003906 208.351562 L 92 213.78125 Z M 92 208.351562 " fill-opacity="1" fill-rule="nonzero"/><path fill="#ffa200" d="M 121.699219 211.015625 L 120.980469 204.511719 L 138.007812 202.886719 L 138.007812 209.210938 Z M 122.527344 205.773438 L 122.9375 209.472656 L 136.605469 207.957031 L 136.605469 204.429688 Z M 122.527344 205.773438 " fill-opacity="1" fill-rule="nonzero"/><path fill="#ffa200" d="M 119.503906 207.023438 L 125.6875 206.265625 L 125.859375 207.65625 L 119.671875 208.414062 Z M 119.503906 207.023438 " fill-opacity="1" fill-rule="nonzero"/><path fill="#372c7d" d="M 89.242188 206.515625 L 100.585938 171.15625 L 103.25 172.011719 L 91.90625 207.371094 Z M 89.242188 206.515625 " fill-opacity="1" fill-rule="nonzero"/><path fill="#5f52bb" d="M 113.851562 161.261719 C 113.851562 161.261719 123.152344 167.375 122.453125 192.242188 L 133.828125 191.363281 C 133.828125 191.363281 135.929688 164.046875 124.203125 157.21875 Z M 113.851562 161.261719 " fill-opacity="1" fill-rule="nonzero"/><path fill="#ff6ea5" d="M 91.824219 201.695312 L 120.703125 189.4375 L 118.429688 176.65625 C 118.429688 176.65625 128.753906 173.851562 137.679688 183.308594 L 134.179688 200.820312 L 127.179688 197.144531 C 127.179688 197.144531 126.652344 206.949219 120.707031 201.699219 L 91.824219 219.207031 Z M 91.824219 201.695312 " fill-opacity="1" fill-rule="nonzero"/><path fill="#002d51" d="M 136.515625 186.339844 C 128.328125 180.742188 122.101562 181.957031 122.039062 181.964844 L 121.46875 179.222656 C 121.765625 179.160156 128.933594 177.757812 138.097656 184.027344 Z M 136.515625 186.339844 " fill-opacity="1" fill-rule="nonzero"/><path fill="#002d51" d="M 135.230469 191.328125 C 130.863281 186.558594 122.324219 187.324219 122.238281 187.332031 L 121.964844 184.542969 C 122.371094 184.5 131.972656 183.621094 137.296875 189.4375 Z M 135.230469 191.328125 " fill-opacity="1" fill-rule="nonzero"/><path fill="#002d51" d="M 133.578125 198.429688 C 129.546875 191.332031 124.382812 192.859375 124.335938 192.878906 L 123.492188 190.203125 C 126.027344 189.402344 131.90625 189.8125 136.011719 197.046875 Z M 133.578125 198.429688 " fill-opacity="1" fill-rule="nonzero"/><path fill="#372c7d" d="M 94.976562 199.421875 C 94.976562 199.421875 78.875 201.699219 73.625 218.15625 L 94.101562 221.132812 Z M 94.976562 199.421875 " fill-opacity="1" fill-rule="nonzero"/><path fill="#002d51" d="M 248.316406 65.914062 C 241.257812 61.800781 233.417969 62.113281 230.804688 66.605469 C 228.875 69.925781 230.351562 74.605469 234.105469 78.480469 L 230.789062 94.175781 L 236.984375 97.191406 L 245.835938 84.796875 C 250.492188 85.628906 254.617188 84.511719 256.371094 81.488281 C 258.984375 77 255.378906 70.023438 248.316406 65.914062 Z M 248.316406 65.914062 " fill-opacity="1" fill-rule="nonzero"/><path fill="#ffffff" d="M 252.011719 79.390625 C 250.253906 82.164062 245.0625 82.019531 240.410156 79.0625 C 235.753906 76.113281 233.40625 71.472656 235.164062 68.703125 C 236.921875 65.929688 242.113281 66.074219 246.769531 69.027344 C 251.421875 71.976562 253.769531 76.621094 252.011719 79.390625 Z M 252.011719 79.390625 " fill-opacity="1" fill-rule="nonzero"/><path fill="#002d51" d="M 237.789062 71.238281 L 243.589844 71.238281 L 243.589844 72.636719 L 237.789062 72.636719 Z M 237.789062 71.238281 " fill-opacity="1" fill-rule="nonzero"/><path fill="#002d51" d="M 242.902344 72 L 244.296875 71.871094 L 244.976562 79.226562 L 243.582031 79.355469 Z M 242.902344 72 " fill-opacity="1" fill-rule="nonzero"/></svg>