<svg xmlns="http://www.w3.org/2000/svg" xmlns:xlink="http://www.w3.org/1999/xlink" width="100" zoomAndPan="magnify" viewBox="0 0 75 37.5" height="50" preserveAspectRatio="xMidYMid meet" version="1.0"><defs><g/><clipPath id="9a3d010969"><path d="M 0.492188 10 L 18 10 L 18 27 L 0.492188 27 Z M 0.492188 10 " clip-rule="nonzero"/></clipPath><clipPath id="1676865c84"><path d="M 65 17 L 74.503906 17 L 74.503906 27 L 65 27 Z M 65 17 " clip-rule="nonzero"/></clipPath></defs><g clip-path="url(#9a3d010969)"><g fill="#000000" fill-opacity="1"><g transform="translate(0.83421, 26.141024)"><g><path d="M 16 -14.953125 C 16.34375 -14.910156 16.578125 -14.8125 16.703125 -14.65625 C 16.828125 -14.5 16.890625 -14.296875 16.890625 -14.046875 C 16.890625 -13.210938 16.445312 -12.828125 15.5625 -12.890625 L 14.921875 -12.9375 C 14.210938 -13 13.503906 -13.046875 12.796875 -13.078125 C 12.097656 -13.117188 11.363281 -13.140625 10.59375 -13.140625 L 9.78125 -13.140625 C 9.632812 -11.359375 9.484375 -9.734375 9.328125 -8.265625 L 12.4375 -8.3125 C 12.882812 -8.3125 13.179688 -8.234375 13.328125 -8.078125 C 13.472656 -7.921875 13.546875 -7.710938 13.546875 -7.453125 C 13.546875 -7.046875 13.425781 -6.722656 13.1875 -6.484375 C 12.945312 -6.253906 12.601562 -6.140625 12.15625 -6.140625 L 9.078125 -6.140625 L 8.96875 -5.359375 C 8.71875 -3.367188 8.179688 -1.953125 7.359375 -1.109375 C 6.535156 -0.273438 5.398438 0.140625 3.953125 0.140625 C 3.128906 0.140625 2.375 -0.0351562 1.6875 -0.390625 C 1.007812 -0.742188 0.507812 -1.171875 0.1875 -1.671875 C 0.0507812 -1.878906 -0.015625 -2.128906 -0.015625 -2.421875 C -0.015625 -2.703125 0.0507812 -2.953125 0.1875 -3.171875 C 0.320312 -3.390625 0.492188 -3.5 0.703125 -3.5 C 0.847656 -3.5 0.988281 -3.453125 1.125 -3.359375 C 1.257812 -3.265625 1.4375 -3.078125 1.65625 -2.796875 C 2.238281 -2.035156 2.957031 -1.65625 3.8125 -1.65625 C 4.5 -1.65625 5.070312 -1.9375 5.53125 -2.5 C 5.988281 -3.0625 6.285156 -3.941406 6.421875 -5.140625 L 6.53125 -6.140625 L 5.671875 -6.140625 C 5.390625 -6.140625 5.148438 -6.21875 4.953125 -6.375 C 4.753906 -6.53125 4.65625 -6.75 4.65625 -7.03125 C 4.65625 -7.40625 4.75 -7.691406 4.9375 -7.890625 C 5.132812 -8.085938 5.421875 -8.1875 5.796875 -8.1875 C 6.128906 -8.1875 6.457031 -8.195312 6.78125 -8.21875 C 6.925781 -9.539062 7.082031 -11.144531 7.25 -13.03125 C 5.957031 -12.90625 5.046875 -12.691406 4.515625 -12.390625 C 3.984375 -12.097656 3.71875 -11.65625 3.71875 -11.0625 C 3.71875 -10.65625 3.835938 -10.265625 4.078125 -9.890625 C 4.148438 -9.785156 4.1875 -9.675781 4.1875 -9.5625 C 4.1875 -9.34375 4.066406 -9.148438 3.828125 -8.984375 C 3.585938 -8.828125 3.316406 -8.75 3.015625 -8.75 C 2.691406 -8.75 2.414062 -8.847656 2.1875 -9.046875 C 2.039062 -9.160156 1.898438 -9.40625 1.765625 -9.78125 C 1.628906 -10.15625 1.5625 -10.570312 1.5625 -11.03125 C 1.5625 -12.519531 2.328125 -13.597656 3.859375 -14.265625 C 5.398438 -14.941406 7.644531 -15.28125 10.59375 -15.28125 C 12.632812 -15.28125 14.4375 -15.171875 16 -14.953125 Z M 16 -14.953125 "/></g></g></g></g><g fill="#000000" fill-opacity="1"><g transform="translate(13.683757, 26.141024)"><g><path d="M 3.234375 -9.59375 C 2.722656 -9.59375 2.34375 -9.710938 2.09375 -9.953125 C 1.84375 -10.191406 1.71875 -10.519531 1.71875 -10.9375 C 1.71875 -11.351562 1.878906 -11.703125 2.203125 -11.984375 C 2.535156 -12.273438 2.953125 -12.421875 3.453125 -12.421875 C 3.890625 -12.421875 4.242188 -12.3125 4.515625 -12.09375 C 4.796875 -11.875 4.9375 -11.566406 4.9375 -11.171875 C 4.9375 -10.691406 4.78125 -10.304688 4.46875 -10.015625 C 4.15625 -9.734375 3.742188 -9.59375 3.234375 -9.59375 Z M 3.09375 0.09375 C 2.300781 0.09375 1.726562 -0.179688 1.375 -0.734375 C 1.019531 -1.285156 0.84375 -2.019531 0.84375 -2.9375 C 0.84375 -3.476562 0.910156 -4.171875 1.046875 -5.015625 C 1.191406 -5.867188 1.375 -6.664062 1.59375 -7.40625 C 1.695312 -7.789062 1.835938 -8.050781 2.015625 -8.1875 C 2.203125 -8.332031 2.492188 -8.40625 2.890625 -8.40625 C 3.503906 -8.40625 3.8125 -8.203125 3.8125 -7.796875 C 3.8125 -7.492188 3.695312 -6.796875 3.46875 -5.703125 C 3.175781 -4.378906 3.03125 -3.484375 3.03125 -3.015625 C 3.03125 -2.648438 3.078125 -2.367188 3.171875 -2.171875 C 3.273438 -1.984375 3.4375 -1.890625 3.65625 -1.890625 C 3.875 -1.890625 4.144531 -2.039062 4.46875 -2.34375 C 4.800781 -2.644531 5.238281 -3.117188 5.78125 -3.765625 C 5.914062 -3.941406 6.078125 -4.03125 6.265625 -4.03125 C 6.421875 -4.03125 6.539062 -3.957031 6.625 -3.8125 C 6.71875 -3.664062 6.765625 -3.46875 6.765625 -3.21875 C 6.765625 -2.726562 6.648438 -2.351562 6.421875 -2.09375 C 5.234375 -0.632812 4.125 0.09375 3.09375 0.09375 Z M 3.09375 0.09375 "/></g></g></g><g fill="#000000" fill-opacity="1"><g transform="translate(18.123349, 26.141024)"><g><path d="M 2.140625 0.09375 C 1.691406 0.09375 1.375 -0.144531 1.1875 -0.625 C 1 -1.113281 0.90625 -1.882812 0.90625 -2.9375 C 0.90625 -4.5 1.125 -5.988281 1.5625 -7.40625 C 1.675781 -7.75 1.851562 -8 2.09375 -8.15625 C 2.34375 -8.320312 2.691406 -8.40625 3.140625 -8.40625 C 3.378906 -8.40625 3.546875 -8.375 3.640625 -8.3125 C 3.742188 -8.257812 3.796875 -8.148438 3.796875 -7.984375 C 3.796875 -7.785156 3.703125 -7.347656 3.515625 -6.671875 C 3.398438 -6.191406 3.304688 -5.769531 3.234375 -5.40625 C 3.160156 -5.050781 3.097656 -4.609375 3.046875 -4.078125 C 3.441406 -5.109375 3.882812 -5.945312 4.375 -6.59375 C 4.875 -7.25 5.359375 -7.710938 5.828125 -7.984375 C 6.304688 -8.265625 6.742188 -8.40625 7.140625 -8.40625 C 7.921875 -8.40625 8.3125 -8.015625 8.3125 -7.234375 C 8.3125 -6.765625 8.179688 -5.914062 7.921875 -4.6875 C 7.691406 -3.644531 7.578125 -2.953125 7.578125 -2.609375 C 7.578125 -2.128906 7.753906 -1.890625 8.109375 -1.890625 C 8.347656 -1.890625 8.628906 -2.035156 8.953125 -2.328125 C 9.285156 -2.628906 9.726562 -3.109375 10.28125 -3.765625 C 10.425781 -3.941406 10.59375 -4.03125 10.78125 -4.03125 C 10.9375 -4.03125 11.054688 -3.957031 11.140625 -3.8125 C 11.234375 -3.664062 11.28125 -3.46875 11.28125 -3.21875 C 11.28125 -2.726562 11.164062 -2.351562 10.9375 -2.09375 C 10.414062 -1.457031 9.859375 -0.929688 9.265625 -0.515625 C 8.671875 -0.109375 7.992188 0.09375 7.234375 0.09375 C 6.617188 0.09375 6.15625 -0.0820312 5.84375 -0.4375 C 5.53125 -0.789062 5.375 -1.304688 5.375 -1.984375 C 5.375 -2.316406 5.457031 -2.921875 5.625 -3.796875 C 5.78125 -4.546875 5.859375 -5.066406 5.859375 -5.359375 C 5.859375 -5.554688 5.796875 -5.65625 5.671875 -5.65625 C 5.515625 -5.65625 5.289062 -5.453125 5 -5.046875 C 4.71875 -4.640625 4.429688 -4.101562 4.140625 -3.4375 C 3.847656 -2.78125 3.609375 -2.085938 3.421875 -1.359375 C 3.296875 -0.785156 3.144531 -0.398438 2.96875 -0.203125 C 2.789062 -0.00390625 2.515625 0.09375 2.140625 0.09375 Z M 2.140625 0.09375 "/></g></g></g><g fill="#000000" fill-opacity="1"><g transform="translate(27.074719, 26.141024)"><g><path d="M 11.109375 -4.03125 C 11.265625 -4.03125 11.390625 -3.957031 11.484375 -3.8125 C 11.578125 -3.664062 11.625 -3.46875 11.625 -3.21875 C 11.625 -2.726562 11.507812 -2.351562 11.28125 -2.09375 C 10.789062 -1.488281 10.25 -0.972656 9.65625 -0.546875 C 9.0625 -0.117188 8.476562 0.09375 7.90625 0.09375 C 6.988281 0.09375 6.289062 -0.441406 5.8125 -1.515625 C 5.300781 -0.878906 4.859375 -0.453125 4.484375 -0.234375 C 4.109375 -0.015625 3.664062 0.09375 3.15625 0.09375 C 2.425781 0.09375 1.820312 -0.175781 1.34375 -0.71875 C 0.863281 -1.269531 0.625 -1.988281 0.625 -2.875 C 0.625 -3.832031 0.828125 -4.722656 1.234375 -5.546875 C 1.648438 -6.367188 2.210938 -7.039062 2.921875 -7.5625 C 3.640625 -8.09375 4.445312 -8.40625 5.34375 -8.5 C 5.570312 -10.832031 6.003906 -12.828125 6.640625 -14.484375 C 7.285156 -16.140625 8.132812 -16.96875 9.1875 -16.96875 C 9.707031 -16.96875 10.132812 -16.734375 10.46875 -16.265625 C 10.8125 -15.796875 10.984375 -15.082031 10.984375 -14.125 C 10.984375 -12.78125 10.648438 -11.207031 9.984375 -9.40625 C 9.328125 -7.601562 8.445312 -5.75 7.34375 -3.84375 C 7.394531 -3.144531 7.5 -2.644531 7.65625 -2.34375 C 7.820312 -2.039062 8.03125 -1.890625 8.28125 -1.890625 C 8.601562 -1.890625 8.929688 -2.035156 9.265625 -2.328125 C 9.609375 -2.617188 10.0625 -3.097656 10.625 -3.765625 C 10.769531 -3.941406 10.929688 -4.03125 11.109375 -4.03125 Z M 8.984375 -15.203125 C 8.753906 -15.203125 8.523438 -14.796875 8.296875 -13.984375 C 8.066406 -13.171875 7.867188 -12.109375 7.703125 -10.796875 C 7.546875 -9.484375 7.429688 -8.109375 7.359375 -6.671875 C 8.710938 -9.609375 9.390625 -11.96875 9.390625 -13.75 C 9.390625 -14.207031 9.347656 -14.5625 9.265625 -14.8125 C 9.191406 -15.070312 9.097656 -15.203125 8.984375 -15.203125 Z M 3.796875 -1.734375 C 4.015625 -1.734375 4.238281 -1.828125 4.46875 -2.015625 C 4.695312 -2.203125 4.988281 -2.546875 5.34375 -3.046875 C 5.21875 -3.703125 5.15625 -4.429688 5.15625 -5.234375 C 5.15625 -5.523438 5.171875 -5.992188 5.203125 -6.640625 C 4.535156 -6.429688 3.984375 -5.988281 3.546875 -5.3125 C 3.109375 -4.632812 2.890625 -3.878906 2.890625 -3.046875 C 2.890625 -2.171875 3.191406 -1.734375 3.796875 -1.734375 Z M 3.796875 -1.734375 "/></g></g></g><g fill="#000000" fill-opacity="1"><g transform="translate(36.368985, 26.141024)"><g><path d="M 17.578125 -4.03125 C 17.734375 -4.03125 17.851562 -3.957031 17.9375 -3.8125 C 18.03125 -3.664062 18.078125 -3.46875 18.078125 -3.21875 C 18.078125 -2.75 17.960938 -2.375 17.734375 -2.09375 C 16.546875 -0.632812 15.28125 0.09375 13.9375 0.09375 C 12.769531 0.09375 11.835938 -0.351562 11.140625 -1.25 C 10.441406 -2.15625 10.09375 -3.453125 10.09375 -5.140625 C 10.09375 -5.546875 10.109375 -5.957031 10.140625 -6.375 C 9.347656 -6.226562 8.484375 -6.117188 7.546875 -6.046875 C 6.921875 -5.992188 6.492188 -5.960938 6.265625 -5.953125 C 6.023438 -4.722656 5.6875 -3.21875 5.25 -1.4375 C 5 -0.394531 4.519531 0.125 3.8125 0.125 C 3.039062 0.125 2.65625 -0.222656 2.65625 -0.921875 C 2.65625 -1.078125 2.6875 -1.289062 2.75 -1.5625 C 3.15625 -3.21875 3.476562 -4.613281 3.71875 -5.75 L 2.84375 -5.71875 C 2.445312 -5.71875 2.160156 -5.785156 1.984375 -5.921875 C 1.804688 -6.066406 1.71875 -6.296875 1.71875 -6.609375 C 1.71875 -7.003906 1.832031 -7.296875 2.0625 -7.484375 C 2.289062 -7.671875 2.664062 -7.773438 3.1875 -7.796875 L 4.15625 -7.828125 C 4.46875 -9.523438 4.625 -10.820312 4.625 -11.71875 C 4.625 -12.28125 4.535156 -12.660156 4.359375 -12.859375 C 4.191406 -13.066406 3.972656 -13.171875 3.703125 -13.171875 C 2.859375 -13.171875 1.90625 -12.46875 0.84375 -11.0625 C 0.6875 -10.851562 0.515625 -10.75 0.328125 -10.75 C 0.160156 -10.75 0.0195312 -10.828125 -0.09375 -10.984375 C -0.21875 -11.140625 -0.28125 -11.34375 -0.28125 -11.59375 C -0.28125 -11.957031 -0.132812 -12.351562 0.15625 -12.78125 C 0.6875 -13.507812 1.351562 -14.109375 2.15625 -14.578125 C 2.96875 -15.054688 3.789062 -15.296875 4.625 -15.296875 C 5.40625 -15.296875 6.007812 -15.03125 6.4375 -14.5 C 6.863281 -13.96875 7.078125 -13.132812 7.078125 -12 C 7.078125 -11 6.929688 -9.644531 6.640625 -7.9375 L 8.40625 -8.03125 C 9.164062 -8.0625 9.816406 -8.125 10.359375 -8.21875 C 10.578125 -9.539062 10.90625 -10.773438 11.34375 -11.921875 C 11.789062 -13.078125 12.34375 -14.015625 13 -14.734375 C 13.664062 -15.460938 14.410156 -15.828125 15.234375 -15.828125 C 15.835938 -15.828125 16.3125 -15.585938 16.65625 -15.109375 C 17.007812 -14.640625 17.1875 -14.019531 17.1875 -13.25 C 17.1875 -10.257812 15.660156 -8.1875 12.609375 -7.03125 C 12.578125 -6.550781 12.5625 -6.054688 12.5625 -5.546875 C 12.5625 -4.273438 12.71875 -3.375 13.03125 -2.84375 C 13.34375 -2.320312 13.78125 -2.0625 14.34375 -2.0625 C 14.84375 -2.0625 15.296875 -2.1875 15.703125 -2.4375 C 16.109375 -2.695312 16.570312 -3.140625 17.09375 -3.765625 C 17.238281 -3.941406 17.398438 -4.03125 17.578125 -4.03125 Z M 15.140625 -14.25 C 14.878906 -14.25 14.597656 -14.007812 14.296875 -13.53125 C 14.003906 -13.050781 13.722656 -12.394531 13.453125 -11.5625 C 13.191406 -10.738281 12.984375 -9.832031 12.828125 -8.84375 C 13.796875 -9.238281 14.503906 -9.800781 14.953125 -10.53125 C 15.410156 -11.269531 15.640625 -12.21875 15.640625 -13.375 C 15.640625 -13.644531 15.59375 -13.859375 15.5 -14.015625 C 15.40625 -14.171875 15.285156 -14.25 15.140625 -14.25 Z M 15.140625 -14.25 "/></g></g></g><g fill="#000000" fill-opacity="1"><g transform="translate(52.124121, 26.141024)"><g><path d="M 3.234375 -9.59375 C 2.722656 -9.59375 2.34375 -9.710938 2.09375 -9.953125 C 1.84375 -10.191406 1.71875 -10.519531 1.71875 -10.9375 C 1.71875 -11.351562 1.878906 -11.703125 2.203125 -11.984375 C 2.535156 -12.273438 2.953125 -12.421875 3.453125 -12.421875 C 3.890625 -12.421875 4.242188 -12.3125 4.515625 -12.09375 C 4.796875 -11.875 4.9375 -11.566406 4.9375 -11.171875 C 4.9375 -10.691406 4.78125 -10.304688 4.46875 -10.015625 C 4.15625 -9.734375 3.742188 -9.59375 3.234375 -9.59375 Z M 3.09375 0.09375 C 2.300781 0.09375 1.726562 -0.179688 1.375 -0.734375 C 1.019531 -1.285156 0.84375 -2.019531 0.84375 -2.9375 C 0.84375 -3.476562 0.910156 -4.171875 1.046875 -5.015625 C 1.191406 -5.867188 1.375 -6.664062 1.59375 -7.40625 C 1.695312 -7.789062 1.835938 -8.050781 2.015625 -8.1875 C 2.203125 -8.332031 2.492188 -8.40625 2.890625 -8.40625 C 3.503906 -8.40625 3.8125 -8.203125 3.8125 -7.796875 C 3.8125 -7.492188 3.695312 -6.796875 3.46875 -5.703125 C 3.175781 -4.378906 3.03125 -3.484375 3.03125 -3.015625 C 3.03125 -2.648438 3.078125 -2.367188 3.171875 -2.171875 C 3.273438 -1.984375 3.4375 -1.890625 3.65625 -1.890625 C 3.875 -1.890625 4.144531 -2.039062 4.46875 -2.34375 C 4.800781 -2.644531 5.238281 -3.117188 5.78125 -3.765625 C 5.914062 -3.941406 6.078125 -4.03125 6.265625 -4.03125 C 6.421875 -4.03125 6.539062 -3.957031 6.625 -3.8125 C 6.71875 -3.664062 6.765625 -3.46875 6.765625 -3.21875 C 6.765625 -2.726562 6.648438 -2.351562 6.421875 -2.09375 C 5.234375 -0.632812 4.125 0.09375 3.09375 0.09375 Z M 3.09375 0.09375 "/></g></g></g><g fill="#000000" fill-opacity="1"><g transform="translate(56.563713, 26.141024)"><g><path d="M 2.140625 0.09375 C 1.691406 0.09375 1.375 -0.144531 1.1875 -0.625 C 1 -1.113281 0.90625 -1.882812 0.90625 -2.9375 C 0.90625 -4.5 1.125 -5.988281 1.5625 -7.40625 C 1.675781 -7.75 1.851562 -8 2.09375 -8.15625 C 2.34375 -8.320312 2.691406 -8.40625 3.140625 -8.40625 C 3.378906 -8.40625 3.546875 -8.375 3.640625 -8.3125 C 3.742188 -8.257812 3.796875 -8.148438 3.796875 -7.984375 C 3.796875 -7.785156 3.703125 -7.347656 3.515625 -6.671875 C 3.398438 -6.191406 3.304688 -5.769531 3.234375 -5.40625 C 3.160156 -5.050781 3.097656 -4.609375 3.046875 -4.078125 C 3.441406 -5.109375 3.882812 -5.945312 4.375 -6.59375 C 4.875 -7.25 5.359375 -7.710938 5.828125 -7.984375 C 6.304688 -8.265625 6.742188 -8.40625 7.140625 -8.40625 C 7.921875 -8.40625 8.3125 -8.015625 8.3125 -7.234375 C 8.3125 -7.078125 8.257812 -6.695312 8.15625 -6.09375 C 8.0625 -5.613281 8.015625 -5.316406 8.015625 -5.203125 C 8.015625 -4.773438 8.164062 -4.5625 8.46875 -4.5625 C 8.800781 -4.5625 9.234375 -4.828125 9.765625 -5.359375 C 9.921875 -5.515625 10.082031 -5.59375 10.25 -5.59375 C 10.40625 -5.59375 10.523438 -5.519531 10.609375 -5.375 C 10.703125 -5.238281 10.75 -5.0625 10.75 -4.84375 C 10.75 -4.394531 10.628906 -4.046875 10.390625 -3.796875 C 10.054688 -3.441406 9.660156 -3.140625 9.203125 -2.890625 C 8.753906 -2.648438 8.28125 -2.53125 7.78125 -2.53125 C 7.144531 -2.53125 6.660156 -2.691406 6.328125 -3.015625 C 5.992188 -3.335938 5.828125 -3.773438 5.828125 -4.328125 C 5.828125 -4.515625 5.847656 -4.695312 5.890625 -4.875 C 5.910156 -5.113281 5.921875 -5.273438 5.921875 -5.359375 C 5.921875 -5.554688 5.851562 -5.65625 5.71875 -5.65625 C 5.539062 -5.65625 5.300781 -5.453125 5 -5.046875 C 4.707031 -4.640625 4.414062 -4.101562 4.125 -3.4375 C 3.84375 -2.78125 3.609375 -2.085938 3.421875 -1.359375 C 3.296875 -0.785156 3.144531 -0.398438 2.96875 -0.203125 C 2.789062 -0.00390625 2.515625 0.09375 2.140625 0.09375 Z M 2.140625 0.09375 "/></g></g></g><g clip-path="url(#1676865c84)"><g fill="#000000" fill-opacity="1"><g transform="translate(64.775152, 26.141024)"><g><path d="M 8.921875 -4.03125 C 9.078125 -4.03125 9.195312 -3.957031 9.28125 -3.8125 C 9.375 -3.664062 9.421875 -3.46875 9.421875 -3.21875 C 9.421875 -2.726562 9.304688 -2.351562 9.078125 -2.09375 C 8.628906 -1.550781 8 -1.050781 7.1875 -0.59375 C 6.375 -0.132812 5.503906 0.09375 4.578125 0.09375 C 3.316406 0.09375 2.335938 -0.25 1.640625 -0.9375 C 0.941406 -1.625 0.59375 -2.5625 0.59375 -3.75 C 0.59375 -4.582031 0.765625 -5.351562 1.109375 -6.0625 C 1.460938 -6.78125 1.945312 -7.347656 2.5625 -7.765625 C 3.1875 -8.191406 3.890625 -8.40625 4.671875 -8.40625 C 5.367188 -8.40625 5.925781 -8.195312 6.34375 -7.78125 C 6.769531 -7.375 6.984375 -6.8125 6.984375 -6.09375 C 6.984375 -5.269531 6.6875 -4.554688 6.09375 -3.953125 C 5.5 -3.359375 4.488281 -2.890625 3.0625 -2.546875 C 3.363281 -1.992188 3.9375 -1.71875 4.78125 -1.71875 C 5.320312 -1.71875 5.9375 -1.90625 6.625 -2.28125 C 7.320312 -2.65625 7.921875 -3.148438 8.421875 -3.765625 C 8.566406 -3.941406 8.734375 -4.03125 8.921875 -4.03125 Z M 4.375 -6.640625 C 3.925781 -6.640625 3.546875 -6.378906 3.234375 -5.859375 C 2.929688 -5.347656 2.78125 -4.722656 2.78125 -3.984375 L 2.78125 -3.953125 C 3.488281 -4.117188 4.046875 -4.367188 4.453125 -4.703125 C 4.867188 -5.046875 5.078125 -5.441406 5.078125 -5.890625 C 5.078125 -6.109375 5.007812 -6.285156 4.875 -6.421875 C 4.75 -6.566406 4.582031 -6.640625 4.375 -6.640625 Z M 4.375 -6.640625 "/></g></g></g></g></svg>